# xmcd
#
# Track frame offsets:
#	150
#	18320
#	32975
#	43890
#	58657
#	72537
#	88982
#	104490
#	120277
#	133990
#	147947
#	169847
#	194362
#	228082
#	249327
#
# Disc length: 3492 seconds
#
# Revision: 3
# Processed by: cddbd v1.5.2PL0 Copyright (c) Steve Scherf et al.
# Submitted via: EasyCDDAExtractor 2010.6.0.0
#
DISCID=db0da20f
DTITLE=Various Artist - The No1 70's Rock Album [CD2]
DYEAR=1900
DGENRE=Blues
TTITLE0=Little River Band - Help Is On It's Way
TTITLE1=Carl Douglas - Kung Fu Fighting
TTITLE2=Daryl Hall and John Oates - Rich Girl
TTITLE3=Marcia Hines - You
TTITLE4=Dr Hook - Walk Right In
TTITLE5=Bachman Turner Overdrive - You Ain't Seen Nothing Yet
TTITLE6=Slade - Coz I Love You
TTITLE7=Bonnie Tyler - It's A Heartache
TTITLE8=Shocking Blue - Venus
TTITLE9=Barry Blue - Dancing On A Saturday Night
TTITLE10=1st Class - Beach Baby
TTITLE11=Amii Steward - Knock On Wood
TTITLE12=Moody Blues - Nights In White Satin
TTITLE13=Gladys Knight and The Pips - Midnight Train To Georgia-
TTITLE14=Black Sabbath - Paranoid
EXTD=
EXTT0=
EXTT1=
EXTT2=
EXTT3=
EXTT4=
EXTT5=
EXTT6=
EXTT7=
EXTT8=
EXTT9=
EXTT10=
EXTT11=
EXTT12=
EXTT13=
EXTT14=
PLAYORDER=
